<?xml version="1.0" encoding="UTF-8"?><svg id="logosandtypes_com" xmlns="http://www.w3.org/2000/svg" viewBox="0 0 150 150"><defs><style>.cls-1{fill:none;}.cls-2{fill:#133051;}</style></defs><path id="Layer_3" class="cls-1" d="M0,0H150V150H0V0Z"/><path class="cls-2" d="M132.57,14.07H17.86c-2.39,0-4.32,1.94-4.32,4.32,0,0,0,78.33,0,78.33,21.68,0,34.91-4.52,48.91-26.77,19.85-32.57,45.22-43.56,74.45-42.47-.47-3.76,2.04-13.52-4.32-13.41Z"/><path class="cls-2" d="M17.97,138.05h114.71c2.39,0,4.32-1.94,4.32-4.32,0,0,0-78.33,0-78.33-21.68,0-34.91,4.52-48.91,26.77-19.85,32.57-45.22,43.56-74.45,42.47,.47,3.76-2.04,13.52,4.32,13.41Z"/></svg>